<svg width="32" height="38" viewBox="0 0 32 38" fill="none" xmlns="http://www.w3.org/2000/svg">
<path fill-rule="evenodd" clip-rule="evenodd" d="M16.0088 31.8C16.8884 31.7952 17.5999 31.0807 17.5999 30.2V23.372C18.5565 22.8187 19.2 21.7845 19.2 20.6C19.2 18.8327 17.7673 17.4 16 17.4C14.2327 17.4 12.8 18.8327 12.8 20.6C12.8 21.7844 13.4435 22.8185 14.3999 23.3718V30.2C14.3999 31.0807 15.1115 31.7952 15.9911 31.8C15.994 31.8 15.997 31.8 16 31.8C16.0029 31.8 16.0058 31.8 16.0088 31.8ZM21.6 10.2V11.8H10.4V10.2C10.4 7.10718 12.9072 4.59998 16 4.59998C19.0928 4.59998 21.6 7.10718 21.6 10.2ZM25.6 11.8H28C30.2091 11.8 32 13.5908 32 15.8V33.4C32 35.6091 30.2091 37.4 28 37.4H4C1.79086 37.4 0 35.6091 0 33.4V15.8C0 13.5908 1.79086 11.8 4 11.8H6.39996V10.2C6.39996 4.89804 10.698 0.599976 16 0.599976C21.3019 0.599976 25.6 4.89804 25.6 10.2V11.8Z" fill="white"/>
</svg>
