<svg width="40" height="46" viewBox="0 0 40 46" fill="none" xmlns="http://www.w3.org/2000/svg">
<path fill-rule="evenodd" clip-rule="evenodd" d="M12 14H28V12C28 7.58172 24.4183 4 20 4C15.5817 4 12 7.58172 12 12V14ZM8 14H4C1.79086 14 0 15.7909 0 18V42C0 44.2091 1.79086 46 4 46H36C38.2091 46 40 44.2091 40 42V18C40 15.7909 38.2091 14 36 14H32V12C32 5.37258 26.6274 0 20 0C13.3726 0 8 5.37258 8 12V14ZM22 28.4649C23.1956 27.7733 24 26.4806 24 25C24 22.7909 22.2091 21 20 21C17.7909 21 16 22.7909 16 25C16 26.4806 16.8044 27.7733 18 28.4649V37C18 38.1046 18.8954 39 20 39C21.1046 39 22 38.1046 22 37V28.4649Z" fill="white"/>
</svg>
